<?xml version="1.0" encoding="UTF-8" standalone="no"?>
<!DOCTYPE svg PUBLIC "-//W3C//DTD SVG 1.1//EN" "http://www.w3.org/Graphics/SVG/1.1/DTD/svg11.dtd">
<svg width="100%" height="100%" viewBox="0 0 32 32" version="1.1" xmlns="http://www.w3.org/2000/svg" xmlns:xlink="http://www.w3.org/1999/xlink" xml:space="preserve" xmlns:serif="http://www.serif.com/" style="fill-rule:evenodd;clip-rule:evenodd;stroke-linecap:round;stroke-linejoin:round;stroke-miterlimit:1.5;">
    <g transform="matrix(0.553191,0,0,1,15.5322,-3.08735)">
        <path d="M8.991,8.01C10.076,8.031 12.141,9.617 13.893,9.492" style="fill:none;stroke:rgb(246,0,33);stroke-width:0.4px;"/>
    </g>
    <g transform="matrix(0.778723,2.76197e-17,-4.94556e-17,-0.990541,1.86431,17.7182)">
        <path d="M8.991,8.01C10.076,8.031 12.141,9.617 13.893,9.492" style="fill:none;stroke:rgb(113,192,114);stroke-width:0.37px;"/>
    </g>
    <g transform="matrix(0.837128,0,0,0.839527,-0.929589,-6.45875)">
        <rect x="4.923" y="16.939" width="6.947" height="7.03" style="fill:rgb(193,0,255);stroke:rgb(129,0,171);stroke-width:1.19px;"/>
    </g>
    <g transform="matrix(1,0,0,1.77448,7.92699,-27.2413)">
        <rect x="4.923" y="16.939" width="6.947" height="7.03" style="fill:rgb(145,145,145);stroke:rgb(246,0,33);stroke-width:0.69px;"/>
    </g>
    <g transform="matrix(1,0,0,0.569733,18.0026,-5.24898)">
        <rect x="4.923" y="16.939" width="6.947" height="7.03" style="fill:rgb(61,61,153);stroke:rgb(24,23,108);stroke-width:1.23px;"/>
    </g>
    <g transform="matrix(1.32595,0,0,1.25099,3.56195,28.3109)">
        <text x="0px" y="0px" style="font-family:'SegoeUI-Semilight', 'Segoe UI', sans-serif;font-weight:350;font-size:16px;fill:white;">mc</text>
    </g>
</svg>
